<?xml version="1.0" encoding="UTF-8"?>
<svg xmlns="http://www.w3.org/2000/svg" xmlns:xlink="http://www.w3.org/1999/xlink" width="73.89pt" height="68pt" viewBox="0 0 73.89 68" version="1.1">
<defs>
<clipPath id="clip1">
  <path d="M 65 22 L 73.890625 22 L 73.890625 29 L 65 29 Z M 65 22 "/>
</clipPath>
</defs>
<g id="surface1">
<path style=" stroke:none;fill-rule:nonzero;fill:rgb(92.89856%,10.998535%,14.099121%);fill-opacity:1;" d="M 56.179688 61.550781 L 56.007813 61.550781 C 54.191406 61.546875 52.316406 61.410156 50.433594 61.132813 C 48.613281 60.863281 46.621094 60.417969 44.816406 59.882813 L 45.425781 59.414063 C 47.199219 59.941406 48.726563 60.253906 50.523438 60.515625 C 52.300781 60.777344 54.0625 60.914063 55.765625 60.929688 L 56.109375 60.484375 L 56.871094 59.25 L 56.976563 59.082031 L 57.230469 59.1875 C 60.097656 60.382813 62.710938 61.085938 65.054688 61.253906 C 67.039063 61.394531 68.828125 61.15625 70.410156 60.511719 C 68.675781 59.523438 67.441406 58.496094 66.636719 57.4375 C 68.960938 55.996094 70.417969 54.238281 71.308594 51.917969 C 69.265625 53.800781 63.804688 52.910156 56.066406 48.859375 C 63.015625 38.238281 64.425781 30.074219 58.113281 16.917969 C 52.3125 23.316406 43.660156 23.554688 36.929688 17.394531 C 30.203125 23.554688 21.550781 23.316406 15.75 16.917969 C 9.4375 30.074219 10.847656 38.238281 17.796875 48.859375 C 10.058594 52.910156 4.597656 53.800781 2.554688 51.917969 C 3.445313 54.238281 4.902344 55.996094 7.226563 57.4375 C 6.421875 58.496094 5.1875 59.523438 3.449219 60.511719 C 5.035156 61.15625 6.824219 61.394531 8.808594 61.253906 C 11.152344 61.085938 13.765625 60.382813 16.632813 59.1875 L 16.886719 59.082031 L 16.992188 59.25 L 17.753906 60.484375 L 18.097656 60.929688 C 19.800781 60.914063 21.5625 60.777344 23.339844 60.515625 C 25.132813 60.253906 26.664063 59.941406 28.4375 59.414063 L 29.046875 59.882813 C 27.242188 60.417969 25.25 60.863281 23.429688 61.132813 C 21.546875 61.410156 19.671875 61.546875 17.855469 61.550781 L 17.683594 61.550781 L 17.613281 61.4375 L 17.324219 61.597656 L 21.707031 66.726563 C 22.757813 67.957031 23.617188 68.011719 24.574219 68 C 27.503906 67.960938 30.269531 66.148438 36.929688 66.148438 C 43.59375 66.148438 46.359375 67.960938 49.289063 68 C 50.246094 68.011719 51.101563 67.957031 52.15625 66.726563 L 56.539063 61.597656 L 56.25 61.4375 L 56.179688 61.550781 "/>
<path style=" stroke:none;fill-rule:nonzero;fill:rgb(92.89856%,10.998535%,14.099121%);fill-opacity:1;" d="M 8.84375 61.75 C 6.632813 61.90625 4.644531 61.605469 2.898438 60.816406 C 2.667969 60.9375 2.429688 61.0625 2.183594 61.183594 C 6.285156 63.398438 11.414063 62.738281 17.082031 60.578125 L 16.570313 59.75 C 13.753906 60.90625 11.171875 61.582031 8.84375 61.75 "/>
<path style=" stroke:none;fill-rule:nonzero;fill:rgb(92.89856%,10.998535%,14.099121%);fill-opacity:1;" d="M 70.964844 60.816406 C 69.21875 61.605469 67.230469 61.90625 65.019531 61.75 C 62.691406 61.582031 60.109375 60.90625 57.292969 59.75 L 56.78125 60.578125 C 62.449219 62.738281 67.578125 63.398438 71.679688 61.183594 C 71.433594 61.0625 71.195313 60.9375 70.964844 60.816406 "/>
<path style=" stroke:none;fill-rule:nonzero;fill:rgb(100%,100%,100%);fill-opacity:1;" d="M 36.929688 58.691406 C 34.183594 58.691406 31.914063 59.027344 30.460938 59.542969 C 26.105469 56.261719 21.019531 51.511719 19.585938 49.320313 L 18.835938 48.175781 C 15.472656 43.035156 13.453125 38.515625 13.042969 33.738281 C 12.664063 29.355469 13.628906 24.6875 16.132813 19.050781 C 19.023438 21.660156 22.441406 23.023438 25.960938 23.105469 C 29.695313 23.199219 33.523438 21.851563 36.929688 19.039063 C 40.339844 21.851563 44.167969 23.199219 47.902344 23.105469 C 51.421875 23.023438 54.839844 21.660156 57.730469 19.050781 C 60.234375 24.6875 61.199219 29.355469 60.820313 33.738281 C 60.410156 38.515625 58.386719 43.035156 55.027344 48.175781 L 54.277344 49.320313 C 52.84375 51.511719 47.757813 56.261719 43.402344 59.542969 C 41.949219 59.027344 39.679688 58.691406 36.929688 58.691406 "/>
<path style=" stroke:none;fill-rule:nonzero;fill:rgb(92.89856%,10.998535%,14.099121%);fill-opacity:1;" d="M 62.242188 17.265625 C 63.042969 16.632813 63.835938 16.003906 64.617188 15.382813 C 65.394531 14.769531 66.160156 14.160156 66.921875 13.558594 L 66.035156 12.390625 C 64.992188 13.203125 64.011719 13.96875 62.941406 14.804688 C 61.851563 15.652344 60.75 16.515625 59.628906 17.386719 C 60.070313 17.882813 60.5 18.367188 60.921875 18.839844 C 61.335938 19.300781 61.734375 19.753906 62.128906 20.195313 C 62.640625 19.78125 63.144531 19.371094 63.648438 18.964844 C 63.191406 18.414063 62.722656 17.847656 62.242188 17.265625 "/>
<path style=" stroke:none;fill-rule:nonzero;fill:rgb(92.89856%,10.998535%,14.099121%);fill-opacity:1;" d="M 26.589844 5.574219 C 26.335938 5.308594 26.035156 5.125 25.679688 5.019531 C 25.503906 4.964844 25.28125 4.929688 25.015625 4.910156 C 24.75 4.894531 24.4375 4.890625 24.082031 4.910156 C 23.792969 4.925781 23.597656 4.902344 23.488281 4.832031 C 23.382813 4.765625 23.300781 4.679688 23.253906 4.566406 C 23.1875 4.410156 23.175781 4.257813 23.210938 4.117188 C 23.25 3.972656 23.355469 3.871094 23.523438 3.808594 C 23.722656 3.730469 23.914063 3.742188 24.089844 3.84375 C 24.265625 3.945313 24.4375 4.152344 24.609375 4.457031 C 25.035156 4.246094 25.460938 4.035156 25.882813 3.824219 C 25.515625 3.113281 25.105469 2.648438 24.660156 2.429688 C 24.433594 2.316406 24.195313 2.261719 23.933594 2.261719 C 23.675781 2.257813 23.398438 2.3125 23.101563 2.421875 C 22.613281 2.601563 22.269531 2.839844 22.066406 3.132813 C 21.863281 3.425781 21.761719 3.765625 21.757813 4.152344 C 21.753906 4.535156 21.832031 4.917969 21.988281 5.289063 C 22.230469 5.859375 22.566406 6.273438 22.996094 6.53125 C 23.210938 6.660156 23.460938 6.753906 23.746094 6.808594 C 24.035156 6.863281 24.359375 6.882813 24.71875 6.863281 C 25.15625 6.839844 25.457031 6.878906 25.625 6.984375 C 25.789063 7.085938 25.910156 7.234375 25.992188 7.417969 C 26.074219 7.613281 26.09375 7.808594 26.046875 8.003906 C 26.003906 8.199219 25.878906 8.335938 25.675781 8.421875 C 25.402344 8.535156 25.132813 8.480469 24.859375 8.246094 C 24.695313 8.105469 24.519531 7.863281 24.347656 7.53125 C 23.90625 7.765625 23.464844 8 23.019531 8.234375 C 23.371094 8.960938 23.804688 9.492188 24.316406 9.84375 C 24.570313 10.015625 24.859375 10.105469 25.183594 10.105469 C 25.507813 10.105469 25.863281 10.023438 26.253906 9.851563 C 26.695313 9.660156 27.019531 9.402344 27.21875 9.078125 C 27.421875 8.753906 27.519531 8.363281 27.511719 7.910156 C 27.507813 7.460938 27.40625 7.007813 27.214844 6.550781 C 27.050781 6.164063 26.839844 5.839844 26.589844 5.574219 "/>
<path style=" stroke:none;fill-rule:nonzero;fill:rgb(92.89856%,10.998535%,14.099121%);fill-opacity:1;" d="M 61.046875 14.945313 C 60.863281 14.507813 60.683594 14.070313 60.503906 13.628906 C 60.105469 13.949219 59.761719 14.15625 59.46875 14.25 C 59.175781 14.34375 58.921875 14.300781 58.707031 14.117188 C 58.480469 13.925781 58.417969 13.660156 58.519531 13.320313 C 58.621094 12.976563 58.972656 12.484375 59.582031 11.847656 C 60.074219 11.328125 60.488281 10.996094 60.820313 10.84375 C 61.269531 10.636719 61.625 10.640625 61.878906 10.863281 C 61.996094 10.960938 62.0625 11.085938 62.085938 11.238281 C 62.105469 11.390625 62.082031 11.5625 62.019531 11.753906 C 61.976563 11.867188 61.890625 12.03125 61.757813 12.234375 C 62.203125 12.40625 62.648438 12.578125 63.09375 12.746094 C 63.324219 12.386719 63.496094 12.050781 63.613281 11.742188 C 63.730469 11.433594 63.796875 11.144531 63.804688 10.882813 C 63.820313 10.359375 63.597656 9.898438 63.132813 9.496094 C 62.835938 9.242188 62.511719 9.078125 62.15625 9.011719 C 61.804688 8.941406 61.421875 8.964844 61.015625 9.085938 C 60.605469 9.203125 60.1875 9.414063 59.753906 9.710938 C 59.324219 10.011719 58.878906 10.402344 58.425781 10.878906 C 58.085938 11.238281 57.800781 11.585938 57.570313 11.917969 C 57.339844 12.25 57.160156 12.570313 57.035156 12.878906 C 56.789063 13.492188 56.707031 13.996094 56.789063 14.390625 C 56.871094 14.785156 57.113281 15.152344 57.511719 15.492188 C 57.839844 15.773438 58.179688 15.929688 58.535156 15.960938 C 58.886719 15.992188 59.273438 15.929688 59.695313 15.761719 C 60.113281 15.59375 60.566406 15.324219 61.046875 14.945313 "/>
<path style=" stroke:none;fill-rule:nonzero;fill:rgb(92.89856%,10.998535%,14.099121%);fill-opacity:1;" d="M 30.421875 3.738281 C 30.339844 3.921875 30.152344 4.042969 29.859375 4.109375 C 29.738281 4.140625 29.613281 4.167969 29.488281 4.195313 C 29.359375 3.640625 29.230469 3.085938 29.101563 2.53125 C 29.246094 2.496094 29.390625 2.464844 29.53125 2.429688 C 29.816406 2.367188 30.027344 2.40625 30.167969 2.546875 C 30.308594 2.683594 30.40625 2.871094 30.464844 3.105469 C 30.519531 3.347656 30.507813 3.558594 30.421875 3.738281 Z M 31.117188 1.101563 C 30.933594 0.9375 30.726563 0.824219 30.5 0.773438 C 30.269531 0.71875 30.019531 0.726563 29.746094 0.789063 C 29.324219 0.882813 28.902344 0.980469 28.484375 1.074219 C 28.0625 1.167969 27.644531 1.265625 27.222656 1.359375 C 27.511719 2.601563 27.800781 3.847656 28.089844 5.09375 C 28.378906 6.34375 28.667969 7.589844 28.960938 8.839844 C 29.214844 8.785156 29.46875 8.726563 29.722656 8.667969 C 29.980469 8.613281 30.234375 8.550781 30.488281 8.492188 C 30.382813 8.03125 30.273438 7.566406 30.164063 7.101563 C 30.058594 6.640625 29.949219 6.175781 29.84375 5.710938 C 30.117188 5.648438 30.398438 5.585938 30.671875 5.523438 C 30.980469 5.453125 31.234375 5.339844 31.4375 5.179688 C 31.640625 5.023438 31.792969 4.820313 31.894531 4.574219 C 32.09375 4.082031 32.101563 3.457031 31.925781 2.703125 C 31.753906 1.972656 31.484375 1.4375 31.117188 1.101563 "/>
<path style=" stroke:none;fill-rule:nonzero;fill:rgb(92.89856%,10.998535%,14.099121%);fill-opacity:1;" d="M 36.917969 5.691406 C 36.738281 6.027344 36.480469 6.199219 36.140625 6.203125 C 35.808594 6.210938 35.542969 6.042969 35.347656 5.707031 C 35.148438 5.367188 35.042969 4.808594 35.03125 4.03125 C 35.015625 3.242188 35.101563 2.675781 35.289063 2.332031 C 35.476563 1.988281 35.730469 1.816406 36.046875 1.808594 C 36.382813 1.800781 36.648438 1.964844 36.847656 2.296875 C 37.050781 2.628906 37.15625 3.160156 37.167969 3.886719 C 37.183594 4.75 37.101563 5.351563 36.917969 5.691406 Z M 38.011719 1.003906 C 37.535156 0.320313 36.871094 -0.015625 36.019531 0 C 35.191406 0.015625 34.546875 0.378906 34.09375 1.089844 C 33.640625 1.796875 33.421875 2.785156 33.445313 4.046875 C 33.460938 4.949219 33.59375 5.699219 33.835938 6.296875 C 34.085938 6.894531 34.398438 7.328125 34.78125 7.597656 C 35.164063 7.867188 35.644531 8 36.222656 7.988281 C 36.792969 7.980469 37.261719 7.8125 37.640625 7.480469 C 38.011719 7.152344 38.296875 6.699219 38.488281 6.117188 C 38.679688 5.535156 38.769531 4.792969 38.753906 3.890625 C 38.730469 2.648438 38.480469 1.683594 38.011719 1.003906 "/>
<path style=" stroke:none;fill-rule:nonzero;fill:rgb(92.89856%,10.998535%,14.099121%);fill-opacity:1;" d="M 43.359375 2.933594 C 43.335938 3.105469 43.277344 3.25 43.195313 3.367188 C 43.109375 3.488281 43.015625 3.554688 42.910156 3.574219 C 42.699219 3.613281 42.558594 3.632813 42.488281 3.621094 C 42.277344 3.589844 42.0625 3.558594 41.847656 3.527344 C 41.929688 3.003906 42.011719 2.480469 42.09375 1.957031 C 42.320313 1.988281 42.539063 2.023438 42.765625 2.054688 C 43.042969 2.09375 43.21875 2.191406 43.300781 2.339844 C 43.378906 2.484375 43.402344 2.683594 43.359375 2.933594 Z M 44.394531 0.894531 C 44.167969 0.730469 43.816406 0.613281 43.347656 0.546875 C 42.925781 0.484375 42.503906 0.421875 42.078125 0.359375 C 41.65625 0.296875 41.234375 0.234375 40.8125 0.171875 C 40.609375 1.460938 40.40625 2.75 40.199219 4.035156 C 39.996094 5.328125 39.789063 6.621094 39.585938 7.914063 C 39.839844 7.953125 40.097656 7.992188 40.351563 8.027344 C 40.609375 8.066406 40.863281 8.101563 41.121094 8.140625 C 41.203125 7.613281 41.285156 7.089844 41.367188 6.566406 C 41.453125 6.039063 41.535156 5.515625 41.617188 4.988281 C 41.660156 4.996094 41.707031 5.003906 41.75 5.011719 C 41.890625 5.03125 42.007813 5.105469 42.097656 5.242188 C 42.164063 5.347656 42.222656 5.5625 42.28125 5.878906 C 42.351563 6.296875 42.425781 6.710938 42.5 7.125 C 42.574219 7.539063 42.648438 7.957031 42.722656 8.371094 C 43.007813 8.414063 43.296875 8.457031 43.585938 8.5 C 43.871094 8.539063 44.160156 8.582031 44.445313 8.621094 C 44.382813 8.230469 44.316406 7.835938 44.253906 7.445313 C 44.191406 7.050781 44.121094 6.660156 44.058594 6.265625 C 44.042969 6.148438 43.996094 5.976563 43.921875 5.753906 C 43.847656 5.53125 43.785156 5.382813 43.742188 5.3125 C 43.671875 5.203125 43.554688 5.089844 43.390625 4.96875 C 43.628906 4.921875 43.824219 4.84375 43.972656 4.742188 C 44.207031 4.578125 44.40625 4.347656 44.570313 4.050781 C 44.734375 3.757813 44.851563 3.398438 44.917969 2.96875 C 44.996094 2.476563 44.984375 2.050781 44.886719 1.683594 C 44.785156 1.320313 44.621094 1.058594 44.394531 0.894531 "/>
<path style=" stroke:none;fill-rule:nonzero;fill:rgb(92.89856%,10.998535%,14.099121%);fill-opacity:1;" d="M 55.226563 4.351563 C 54.769531 4.117188 54.355469 4.019531 53.988281 4.0625 C 53.621094 4.105469 53.28125 4.25 52.972656 4.496094 C 52.664063 4.742188 52.410156 5.042969 52.214844 5.398438 C 51.917969 5.933594 51.804688 6.441406 51.878906 6.914063 C 51.953125 7.386719 52.238281 7.871094 52.738281 8.359375 C 53.042969 8.660156 53.207031 8.898438 53.230469 9.082031 C 53.257813 9.269531 53.21875 9.449219 53.125 9.621094 C 53.023438 9.804688 52.878906 9.945313 52.695313 10.035156 C 52.511719 10.128906 52.320313 10.128906 52.121094 10.039063 C 51.851563 9.917969 51.71875 9.691406 51.730469 9.347656 C 51.734375 9.136719 51.8125 8.859375 51.964844 8.523438 C 51.492188 8.359375 51.019531 8.191406 50.539063 8.023438 C 50.367188 8.382813 50.242188 8.726563 50.171875 9.050781 C 50.097656 9.375 50.078125 9.683594 50.105469 9.976563 C 50.160156 10.5625 50.582031 11.027344 51.359375 11.363281 C 51.800781 11.554688 52.214844 11.617188 52.601563 11.554688 C 52.988281 11.492188 53.359375 11.3125 53.71875 11.019531 C 54.074219 10.726563 54.371094 10.367188 54.605469 9.941406 C 54.808594 9.578125 54.929688 9.21875 54.976563 8.871094 C 55.027344 8.519531 54.976563 8.1875 54.832031 7.867188 C 54.6875 7.542969 54.375 7.140625 53.882813 6.652344 C 53.683594 6.457031 53.574219 6.300781 53.554688 6.179688 C 53.539063 6.058594 53.558594 5.945313 53.617188 5.839844 C 53.699219 5.691406 53.808594 5.582031 53.949219 5.519531 C 54.085938 5.457031 54.234375 5.464844 54.394531 5.542969 C 54.589844 5.640625 54.703125 5.785156 54.734375 5.976563 C 54.769531 6.164063 54.71875 6.421875 54.585938 6.742188 C 55.03125 6.910156 55.472656 7.082031 55.914063 7.246094 C 56.242188 6.527344 56.351563 5.9375 56.234375 5.476563 C 56.121094 5.011719 55.785156 4.636719 55.226563 4.351563 "/>
<path style=" stroke:none;fill-rule:nonzero;fill:rgb(92.89856%,10.998535%,14.099121%);fill-opacity:1;" d="M 67.671875 23.0625 C 68.402344 22.664063 69.132813 22.265625 69.855469 21.867188 C 70.578125 21.476563 71.292969 21.085938 72.007813 20.695313 C 71.730469 20.261719 71.488281 19.882813 71.222656 19.460938 C 70.503906 19.851563 69.75 20.28125 69.023438 20.671875 C 68.292969 21.066406 67.566406 21.453125 66.824219 21.851563 C 66.421875 22.070313 66.066406 22.097656 65.773438 22.085938 C 65.484375 22.074219 65.277344 21.957031 65.15625 21.726563 C 65.035156 21.5 65.054688 21.261719 65.207031 21.019531 C 65.359375 20.777344 65.632813 20.550781 66.023438 20.339844 C 66.75 19.953125 67.472656 19.570313 68.191406 19.1875 C 68.90625 18.804688 69.617188 18.429688 70.324219 18.050781 C 70.070313 17.652344 69.820313 17.257813 69.570313 16.863281 C 68.890625 17.222656 68.207031 17.582031 67.519531 17.945313 C 66.828125 18.308594 66.136719 18.671875 65.4375 19.039063 C 65.089844 19.222656 64.710938 19.472656 64.300781 19.785156 C 64.042969 19.980469 63.816406 20.214844 63.617188 20.488281 C 63.414063 20.761719 63.28125 21.019531 63.21875 21.257813 C 63.152344 21.5 63.15625 21.753906 63.226563 22.027344 C 63.300781 22.300781 63.390625 22.542969 63.496094 22.753906 C 63.84375 23.445313 64.363281 23.691406 65.121094 23.722656 C 66.007813 23.761719 66.90625 23.480469 67.671875 23.0625 "/>
<path style=" stroke:none;fill-rule:nonzero;fill:rgb(92.89856%,10.998535%,14.099121%);fill-opacity:1;" d="M 2.355469 20.445313 C 2.242188 20.65625 2.125 20.863281 2.011719 21.074219 C 1.894531 21.285156 1.777344 21.496094 1.664063 21.710938 C 2.96875 22.273438 4.257813 22.828125 5.53125 23.375 C 6.785156 23.914063 8.019531 24.449219 9.238281 24.972656 C 9.339844 24.765625 9.445313 24.558594 9.546875 24.355469 C 9.648438 24.148438 9.75 23.945313 9.855469 23.738281 C 8.644531 23.210938 7.421875 22.671875 6.183594 22.128906 C 4.925781 21.574219 3.648438 21.015625 2.355469 20.445313 "/>
<path style=" stroke:none;fill-rule:nonzero;fill:rgb(92.89856%,10.998535%,14.099121%);fill-opacity:1;" d="M 7.457031 25.5625 C 7.050781 25.265625 6.582031 25.039063 6.042969 24.890625 C 5.269531 24.675781 4.542969 24.636719 3.84375 25.097656 C 3.535156 25.300781 3.136719 25.679688 2.75 26.226563 C 2.59375 26.445313 2.363281 26.570313 2.25 26.605469 C 2.132813 26.640625 2.019531 26.644531 1.898438 26.609375 C 1.730469 26.558594 1.601563 26.476563 1.507813 26.363281 C 1.414063 26.25 1.386719 26.113281 1.425781 25.953125 C 1.472656 25.757813 1.585938 25.625 1.769531 25.558594 C 1.953125 25.492188 2.324219 25.480469 2.679688 25.546875 C 2.816406 25.054688 2.917969 24.648438 3.007813 24.179688 C 2.175781 24.015625 1.335938 24.019531 0.898438 24.230469 C 0.46875 24.4375 0.191406 24.832031 0.0664063 25.40625 C -0.0351563 25.867188 -0.0195313 26.253906 0.113281 26.570313 C 0.246094 26.886719 0.464844 27.15625 0.765625 27.386719 C 1.070313 27.617188 1.410156 27.789063 1.792969 27.90625 C 2.375 28.089844 2.890625 28.113281 3.34375 27.980469 C 3.804688 27.851563 4.242188 27.523438 4.65625 26.992188 C 4.917969 26.660156 5.144531 26.464844 5.339844 26.40625 C 5.539063 26.347656 5.742188 26.351563 5.957031 26.414063 C 6.179688 26.476563 6.359375 26.589844 6.492188 26.746094 C 6.628906 26.90625 6.660156 27.089844 6.59375 27.289063 C 6.507813 27.558594 6.277344 27.71875 5.902344 27.761719 C 5.675781 27.789063 5.367188 27.757813 4.976563 27.671875 C 4.933594 27.898438 4.894531 28.117188 4.851563 28.339844 C 4.8125 28.558594 4.769531 28.777344 4.730469 28.992188 C 5.128906 29.097656 5.503906 29.164063 5.855469 29.183594 C 6.214844 29.207031 6.546875 29.1875 6.859375 29.125 C 7.175781 29.066406 7.445313 28.925781 7.667969 28.707031 C 7.894531 28.484375 8.082031 28.179688 8.21875 27.792969 C 8.378906 27.347656 8.394531 26.9375 8.261719 26.570313 C 8.125 26.199219 7.859375 25.859375 7.457031 25.5625 "/>
<path style=" stroke:none;fill-rule:nonzero;fill:rgb(92.89856%,10.998535%,14.099121%);fill-opacity:1;" d="M 6.472656 13.988281 C 6.085938 14.539063 5.707031 15.085938 5.324219 15.632813 C 5.980469 16.203125 6.625 16.765625 7.265625 17.320313 C 7.898438 17.871094 8.527344 18.414063 9.144531 18.953125 C 8.382813 18.621094 7.609375 18.28125 6.828125 17.9375 C 6.042969 17.59375 5.246094 17.246094 4.441406 16.890625 C 4.0625 17.433594 3.683594 17.972656 3.308594 18.511719 C 4.507813 19.242188 5.6875 19.960938 6.847656 20.664063 C 7.988281 21.355469 9.105469 22.035156 10.207031 22.703125 C 10.4375 22.390625 10.664063 22.074219 10.898438 21.761719 C 10.0625 21.242188 9.214844 20.71875 8.355469 20.191406 C 7.488281 19.65625 6.605469 19.109375 5.714844 18.554688 C 6.699219 18.980469 7.667969 19.402344 8.625 19.816406 C 9.570313 20.226563 10.507813 20.632813 11.429688 21.03125 C 11.640625 20.746094 11.847656 20.457031 12.058594 20.171875 C 11.316406 19.519531 10.566406 18.855469 9.804688 18.183594 C 9.03125 17.5 8.246094 16.808594 7.449219 16.105469 C 8.335938 16.679688 9.210938 17.246094 10.078125 17.804688 C 10.925781 18.351563 11.769531 18.898438 12.601563 19.429688 C 12.832031 19.113281 13.066406 18.792969 13.300781 18.472656 C 12.214844 17.757813 11.105469 17.03125 9.980469 16.289063 C 8.832031 15.539063 7.664063 14.769531 6.472656 13.988281 "/>
<path style=" stroke:none;fill-rule:nonzero;fill:rgb(92.89856%,10.998535%,14.099121%);fill-opacity:1;" d="M 14.398438 15.050781 C 14.214844 15.230469 14.03125 15.414063 13.84375 15.597656 C 13.457031 15.230469 13.070313 14.867188 12.679688 14.5 C 12.867188 14.316406 13.054688 14.136719 13.242188 13.957031 C 13.433594 13.769531 13.621094 13.691406 13.796875 13.714844 C 13.976563 13.738281 14.148438 13.828125 14.316406 13.988281 C 14.5 14.160156 14.605469 14.335938 14.636719 14.511719 C 14.664063 14.6875 14.585938 14.867188 14.398438 15.050781 Z M 12.0625 12.996094 C 11.902344 13.148438 11.738281 13.304688 11.578125 13.460938 C 11.210938 13.109375 10.839844 12.765625 10.46875 12.414063 C 10.636719 12.257813 10.800781 12.101563 10.96875 11.945313 C 11.140625 11.785156 11.304688 11.71875 11.472656 11.746094 C 11.636719 11.773438 11.800781 11.863281 11.96875 12.023438 C 12.148438 12.195313 12.253906 12.359375 12.28125 12.515625 C 12.3125 12.671875 12.238281 12.832031 12.0625 12.996094 Z M 15.589844 13.125 C 15.234375 12.785156 14.878906 12.554688 14.523438 12.441406 C 14.167969 12.328125 13.8125 12.34375 13.460938 12.492188 C 13.535156 12.246094 13.535156 12.003906 13.460938 11.765625 C 13.347656 11.410156 13.125 11.070313 12.785156 10.746094 C 12.382813 10.359375 11.949219 10.121094 11.488281 10.03125 C 11.023438 9.9375 10.617188 10.054688 10.261719 10.378906 C 9.90625 10.707031 9.550781 11.035156 9.191406 11.363281 C 8.832031 11.695313 8.46875 12.027344 8.105469 12.363281 C 9.097656 13.292969 10.089844 14.21875 11.066406 15.136719 C 12.039063 16.046875 13.007813 16.953125 13.96875 17.847656 C 14.597656 17.222656 15.222656 16.597656 15.839844 15.980469 C 15.917969 15.902344 16.050781 15.71875 16.238281 15.433594 C 16.382813 15.214844 16.453125 15.023438 16.460938 14.855469 C 16.46875 14.585938 16.398438 14.300781 16.25 13.996094 C 16.101563 13.695313 15.882813 13.40625 15.589844 13.125 "/>
<path style=" stroke:none;fill-rule:nonzero;fill:rgb(92.89856%,10.998535%,14.099121%);fill-opacity:1;" d="M 50.960938 4.515625 C 51.1875 3.894531 51.410156 3.269531 51.640625 2.636719 C 50.890625 2.402344 50.140625 2.164063 49.390625 1.929688 C 48.640625 1.691406 47.890625 1.453125 47.140625 1.214844 C 46.925781 1.851563 46.714844 2.480469 46.507813 3.109375 C 46.753906 3.1875 47.003906 3.265625 47.253906 3.34375 C 47.503906 3.421875 47.75 3.503906 48 3.582031 C 47.675781 4.527344 47.355469 5.460938 47.035156 6.386719 C 46.71875 7.304688 46.40625 8.214844 46.097656 9.113281 C 46.335938 9.1875 46.574219 9.261719 46.8125 9.335938 C 47.046875 9.410156 47.285156 9.484375 47.523438 9.558594 C 47.839844 8.664063 48.15625 7.757813 48.480469 6.84375 C 48.804688 5.917969 49.132813 4.984375 49.464844 4.042969 C 49.714844 4.121094 49.964844 4.203125 50.214844 4.28125 C 50.464844 4.355469 50.710938 4.4375 50.960938 4.515625 "/>
<path style=" stroke:none;fill-rule:nonzero;fill:rgb(92.89856%,10.998535%,14.099121%);fill-opacity:1;" d="M 17.34375 11.054688 C 17.132813 10.636719 16.996094 10.359375 16.777344 9.929688 C 16.558594 9.496094 16.339844 9.058594 16.113281 8.609375 C 16.488281 8.949219 16.863281 9.28125 17.230469 9.609375 C 17.59375 9.933594 17.832031 10.148438 18.191406 10.464844 C 17.890625 10.675781 17.640625 10.847656 17.34375 11.054688 Z M 15.503906 6.328125 C 15.027344 6.679688 14.550781 7.03125 14.078125 7.378906 C 14.695313 8.683594 15.289063 9.949219 15.867188 11.167969 C 16.421875 12.347656 16.960938 13.488281 17.480469 14.585938 C 17.890625 14.308594 18.300781 14.03125 18.710938 13.75 C 18.527344 13.398438 18.34375 13.039063 18.15625 12.675781 C 18.625 12.351563 19.09375 12.03125 19.566406 11.703125 C 19.875 11.984375 20.183594 12.261719 20.488281 12.539063 C 20.917969 12.246094 21.351563 11.949219 21.789063 11.652344 C 20.8125 10.828125 19.8125 9.980469 18.785156 9.105469 C 17.722656 8.207031 16.628906 7.28125 15.503906 6.328125 "/>
<g clip-path="url(#clip1)" clip-rule="nonzero">
<path style=" stroke:none;fill-rule:nonzero;fill:rgb(92.89856%,10.998535%,14.099121%);fill-opacity:1;" d="M 72.019531 25.941406 C 71.921875 26.0625 71.761719 26.160156 71.539063 26.230469 C 71.300781 26.308594 71.101563 26.328125 70.941406 26.28125 C 70.785156 26.238281 70.667969 26.109375 70.589844 25.898438 C 70.515625 25.699219 70.445313 25.496094 70.371094 25.296875 C 70.859375 25.144531 71.347656 24.988281 71.835938 24.832031 C 71.90625 25.035156 71.980469 25.238281 72.050781 25.441406 C 72.125 25.648438 72.113281 25.816406 72.019531 25.941406 Z M 69.148438 27.027344 C 69.046875 27.167969 68.882813 27.269531 68.660156 27.34375 C 68.417969 27.417969 68.207031 27.433594 68.027344 27.382813 C 67.847656 27.332031 67.714844 27.191406 67.625 26.957031 C 67.539063 26.722656 67.449219 26.492188 67.363281 26.257813 C 67.878906 26.09375 68.394531 25.929688 68.914063 25.765625 C 69 25.996094 69.085938 26.230469 69.167969 26.460938 C 69.257813 26.699219 69.25 26.890625 69.148438 27.027344 Z M 73.816406 25.523438 C 73.664063 25.09375 73.515625 24.664063 73.367188 24.230469 C 73.214844 23.792969 73.0625 23.355469 72.910156 22.917969 C 71.613281 23.335938 70.324219 23.75 69.035156 24.164063 C 67.75 24.574219 66.46875 24.988281 65.195313 25.398438 C 65.34375 25.792969 65.496094 26.191406 65.648438 26.582031 C 65.800781 26.976563 65.949219 27.367188 66.101563 27.757813 C 66.140625 27.855469 66.253906 28.046875 66.4375 28.328125 C 66.578125 28.539063 66.722656 28.683594 66.878906 28.761719 C 67.132813 28.886719 67.429688 28.949219 67.785156 28.953125 C 68.136719 28.960938 68.507813 28.902344 68.898438 28.777344 C 69.382813 28.625 69.753906 28.425781 70.019531 28.175781 C 70.285156 27.929688 70.425781 27.625 70.441406 27.269531 C 70.640625 27.4375 70.867188 27.539063 71.125 27.582031 C 71.503906 27.640625 71.921875 27.597656 72.371094 27.453125 C 72.910156 27.285156 73.320313 27.027344 73.605469 26.683594 C 73.894531 26.339844 73.964844 25.953125 73.816406 25.523438 "/>
</g>
<path style=" stroke:none;fill-rule:nonzero;fill:rgb(92.89856%,10.998535%,14.099121%);fill-opacity:1;" d="M 48.375 43.941406 C 47.933594 45.152344 46.378906 46.703125 45.667969 47.539063 C 45.324219 47.945313 44.863281 48.132813 44.417969 48.621094 C 43.523438 49.605469 42.851563 50.269531 42.523438 50.996094 C 42.363281 51.347656 42.515625 51.648438 42.355469 52.09375 C 42.25 52.386719 42.136719 52.714844 42.011719 53.085938 C 41.578125 54.382813 41.546875 55.660156 42.773438 55.945313 C 43.84375 56.191406 44.332031 56.707031 44.296875 57.140625 C 44.257813 57.683594 43.476563 57.972656 43.476563 57.300781 C 43.476563 56.910156 43.257813 56.671875 42.890625 56.503906 C 43.03125 56.859375 43.335938 57.089844 43.335938 57.515625 C 43.335938 58.085938 42.394531 58.164063 42.144531 57.882813 C 40.691406 56.261719 40.84375 56.273438 39.875 54.902344 C 39.457031 54.308594 39.285156 53.5625 39.222656 53 C 39.128906 52.101563 39.140625 51.097656 39.082031 50.304688 C 40.84375 49.96875 42.074219 49.136719 42.652344 47.703125 L 43.664063 47.703125 L 43.664063 48.15625 C 45.136719 47.585938 46.683594 46.386719 48.375 43.941406 Z M 39.242188 46.929688 C 39.050781 48.195313 40.351563 48.320313 39.375 50.011719 C 40.351563 49.804688 41.085938 49.386719 41.375 48.710938 C 40.429688 48.308594 39.746094 47.691406 39.242188 46.929688 Z M 31.375 47.652344 C 31.191406 47.734375 30.664063 49.5625 30.523438 50.035156 C 30.351563 50.605469 30.933594 51.03125 30.933594 51.59375 C 30.933594 51.976563 31.050781 52.503906 31.09375 52.8125 C 31.253906 53.914063 31.667969 54.359375 33.042969 54.359375 C 33.730469 54.359375 33.476563 53.75 33.320313 53.34375 C 33.5625 53.34375 33.824219 53.863281 33.851563 54.105469 C 34.164063 53.894531 34.234375 53.332031 33.957031 53.058594 C 33.574219 52.679688 32.851563 52.570313 32.941406 51.851563 C 33.046875 51.027344 33.761719 50.460938 34.625 49.707031 C 33.042969 49.503906 32.050781 48.757813 31.375 47.652344 Z M 27.222656 43.007813 C 26.605469 44.46875 25.441406 45.34375 24.195313 45.34375 C 23.328125 45.347656 22.3125 44.996094 21.769531 44.167969 C 21.5625 43.851563 21.671875 43.601563 21.589844 43.347656 C 21.476563 43.019531 21.152344 42.722656 20.582031 42.703125 C 19.683594 42.667969 19.027344 42.820313 18.445313 43.925781 C 19.097656 43.484375 19.339844 43.519531 19.625 43.519531 C 20.617188 43.519531 19.800781 43.636719 19.875 44.207031 C 19.902344 44.429688 20.195313 44.601563 20.273438 44.445313 C 20.449219 44.105469 20.78125 43.972656 21.390625 44.632813 C 22.1875 45.492188 23.449219 46.34375 24.472656 46.339844 C 25.542969 46.335938 26.472656 45.726563 27.355469 44.722656 C 27.328125 44.136719 27.21875 43.519531 27.222656 43.007813 Z M 38.128906 32.066406 C 38.984375 31.769531 39.691406 31.9375 40.175781 32.789063 C 38.960938 32.730469 39.230469 34.222656 37.335938 34.199219 C 35.886719 34.179688 34.078125 34.746094 33.441406 36.132813 L 33.976563 36.113281 C 33.386719 36.679688 33.070313 37.230469 33.027344 37.765625 C 33.328125 37.441406 33.585938 37.113281 33.75 36.773438 C 33.78125 41.78125 35.140625 44.277344 37.773438 44.296875 C 37.484375 45.839844 37.867188 47.027344 38.875 47.828125 L 38.875 53.113281 C 38.738281 53.597656 38.558594 54.070313 38.335938 54.539063 C 38.570313 54.242188 38.796875 53.960938 39.019531 53.753906 C 39.566406 55.195313 40.535156 56.3125 41.6875 57.476563 C 42.855469 58.804688 40.539063 58.867188 40.40625 58.335938 C 40.285156 57.84375 39.832031 56.671875 39.367188 56.519531 C 39.613281 56.953125 40.109375 57.703125 40.027344 58.21875 C 39.992188 58.421875 39.628906 58.453125 39.511719 58.449219 C 38.699219 58.4375 38.828125 58.214844 38.550781 58.191406 C 38.320313 58.171875 38.226563 58.34375 38 58.328125 C 37.800781 58.3125 37.605469 58.292969 37.40625 58.277344 C 36.878906 58.238281 36.503906 57.960938 36.3125 57.34375 C 35.789063 55.664063 36.269531 52.730469 35.796875 51.089844 C 35.632813 50.523438 35.703125 49.636719 35.699219 48.824219 C 35.695313 48.105469 35.609375 47.46875 35.609375 46.898438 C 35.609375 45.410156 36.152344 45.21875 36.375 44.808594 C 35.273438 45.183594 35.34375 46.484375 35.28125 49.695313 C 33.136719 48.898438 32.007813 47.839844 31.148438 46.710938 C 30.785156 47.507813 30.496094 48.546875 30.136719 49.28125 C 29.703125 50.171875 28.804688 51.121094 28.804688 52.054688 C 28.804688 52.84375 29.308594 53.121094 29.644531 53.78125 C 29.980469 54.4375 30.136719 55.074219 29.742188 55.460938 C 29.585938 55.613281 28.792969 56.164063 28.792969 55.5625 C 28.792969 54.777344 28.828125 54.449219 28.554688 54.21875 C 28.691406 54.636719 28.789063 55.136719 28.628906 55.378906 C 28.371094 55.761719 27.851563 55.800781 27.453125 55.621094 C 26.976563 55.40625 26.992188 55.105469 27.019531 54.597656 C 27.058594 53.859375 27.234375 54.050781 27.242188 52.453125 C 27.246094 50.917969 26.089844 50.683594 27.136719 48.980469 C 27.554688 48.292969 27.792969 46.996094 27.800781 45.734375 C 27.804688 44.304688 27.53125 42.984375 27.542969 42.210938 C 27.566406 40.304688 28.761719 38.230469 31.074219 38.230469 C 31.847656 38.230469 32.792969 38.203125 32.78125 37.375 C 32.460938 37.664063 32.066406 37.828125 31.621094 37.910156 C 32.570313 37.207031 33.203125 36.5 33.378906 35.78125 C 33.136719 35.957031 32.914063 36.074219 32.695313 36.132813 C 34.960938 31.710938 37.730469 34 39.265625 32.683594 C 39.128906 32.328125 38.734375 32.128906 38.128906 32.066406 Z M 34.179688 35.953125 C 34.808594 34.804688 35.882813 34.394531 37.449219 34.8125 C 36.152344 35.851563 35.578125 34.519531 34.179688 35.953125 Z M 34.578125 40.84375 C 35.648438 39.4375 34.546875 37.457031 35.503906 36.714844 C 35.964844 36.355469 37.324219 35.710938 37.261719 36.507813 C 37.558594 36.300781 37.898438 36.269531 38.273438 36.382813 C 37.792969 34.996094 36.046875 35.359375 35.332031 35.882813 C 33.816406 36.988281 34.90625 38.28125 34.578125 40.84375 Z M 37.101563 44.03125 C 37.523438 41.582031 38.09375 41.609375 38.707031 40.761719 C 38.6875 39.980469 38.832031 39.445313 39.222656 39.273438 C 38.78125 38.699219 38.242188 38.464844 37.632813 38.46875 C 37.941406 38.058594 38.40625 37.707031 39.101563 37.433594 C 37.910156 36.71875 36.703125 36.796875 35.484375 37.539063 C 36.160156 37.449219 36.78125 37.414063 37.292969 37.488281 C 35.984375 38.085938 35.355469 39.113281 35.339844 40.535156 C 35.570313 39.960938 35.828125 39.503906 36.140625 39.289063 C 35.539063 40.480469 36.167969 41.988281 35.484375 43.261719 C 37.121094 42.28125 35.785156 39.839844 38.066406 39.210938 C 37.746094 40.820313 36.160156 42.339844 37.101563 44.03125 Z M 38.683594 46.113281 C 38.398438 45.492188 38.292969 44.863281 38.683594 44.226563 L 38.304688 44.597656 C 38.277344 44.144531 38.382813 43.761719 38.683594 43.472656 C 38.703125 43.722656 38.792969 43.898438 38.949219 44.140625 C 39.386719 43.03125 38.859375 42.308594 38.972656 41.527344 C 38.667969 41.992188 38.675781 42.492188 38.523438 42.910156 C 38.414063 43.207031 38.203125 43.46875 38.132813 43.722656 C 37.878906 44.617188 37.902344 45.320313 38.683594 46.113281 Z M 37.914063 45.648438 C 37.875 46.214844 38.152344 46.570313 38.65625 46.535156 C 38.40625 46.292969 38.097656 45.964844 37.914063 45.648438 Z M 40.28125 46.402344 C 40.234375 44.964844 40.128906 44.167969 40.023438 43.886719 C 39.148438 44.96875 39.640625 46.328125 40.417969 47.742188 C 38.945313 46.535156 38.46875 44.867188 40.167969 42.820313 C 40.757813 43.9375 40.707031 45.8125 40.28125 46.402344 Z M 41.851563 47.671875 C 41.65625 47.457031 41.433594 47.25 41.15625 47.050781 C 41.179688 47.554688 41.417969 48.027344 41.683594 48.5 C 40.773438 48.199219 40.835938 47.367188 40.902344 45.949219 C 41.238281 46.925781 41.792969 46.769531 41.851563 47.671875 Z M 40.726563 42.683594 C 41.007813 43.089844 41.09375 43.46875 40.738281 43.78125 C 40.734375 43.414063 40.632813 43.046875 40.726563 42.683594 Z M 41.34375 45.988281 C 41.238281 44.277344 41.765625 43.945313 41.453125 42.757813 C 41.378906 43.808594 40.199219 44.507813 41.34375 45.988281 Z M 41.527344 45.035156 C 41.867188 44.058594 41.964844 43.132813 41.628906 42.402344 C 42.050781 42.753906 42.394531 43.128906 42.457031 43.578125 L 42.210938 43.496094 C 42.265625 44.042969 42.023438 44.597656 41.527344 45.035156 Z M 42.796875 47.332031 C 42.621094 47.007813 42.484375 46.648438 42.417969 46.226563 L 42.199219 46.402344 C 42.246094 45.578125 42.152344 45.375 41.949219 44.773438 C 42.695313 44.949219 42.773438 45.917969 42.796875 47.332031 Z M 43.046875 44.898438 C 43.320313 44.058594 43.421875 43.371094 43.332031 42.839844 C 43.21875 42.175781 42.710938 42.164063 41.964844 41.53125 C 42.199219 42.859375 43.128906 42.796875 43.046875 44.898438 Z M 44.664063 39.949219 C 45.167969 40.800781 45.183594 42.121094 44.683594 43.09375 L 44.203125 42.371094 C 43.992188 42.789063 43.960938 43.324219 44.054688 43.9375 L 44.519531 43.515625 L 44.574219 44.558594 C 45.441406 44.179688 46.082031 43.558594 46.519531 42.710938 C 46.75 43.96875 46.566406 44.835938 45.480469 46.507813 C 45.460938 45.695313 45.859375 44.882813 46.0625 44.214844 C 45.253906 44.707031 45.269531 46.378906 44.367188 47.421875 C 44.589844 46.523438 44.699219 45.683594 44.601563 44.949219 C 44.210938 45.320313 43.894531 45.863281 43.613281 46.484375 L 43.683594 42.125 C 44.355469 41.316406 44.753906 40.574219 44.664063 39.949219 Z M 46.933594 44.164063 C 46.988281 43.417969 47.394531 42.398438 47.726563 41.515625 C 47.726563 42.671875 47.417969 43.625 46.933594 44.164063 Z M 45.6875 46.730469 C 46.019531 46.054688 46.425781 45.40625 46.921875 44.785156 C 46.714844 45.597656 46.28125 46.234375 45.6875 46.730469 Z M 43.933594 37.246094 C 44.871094 37.726563 45.1875 38.425781 44.964844 39.207031 L 44.738281 38.835938 C 44.539063 39.492188 44.257813 40.054688 43.796875 40.421875 C 44.101563 39.492188 44.140625 38.4375 43.933594 37.246094 Z M 46.203125 36.554688 C 46.097656 36.933594 46.066406 37.371094 46.089844 37.84375 C 45.808594 37.648438 45.457031 37.507813 45.027344 37.421875 C 45.914063 40.726563 45.992188 42.339844 45.242188 43.472656 C 45.75 42.800781 46.195313 42.03125 46.550781 41.125 C 46.746094 41.453125 46.894531 41.898438 47.007813 42.421875 C 47.234375 41.722656 47.324219 41.019531 47.265625 40.320313 L 46.820313 40.667969 C 46.664063 40.070313 46.445313 39.472656 46.125 38.875 C 46.628906 38.898438 47.125 39.246094 47.53125 39.710938 C 47.5625 38.390625 46.460938 37.917969 46.203125 36.554688 Z M 44.492188 31.671875 C 45.46875 31.070313 46.394531 30.21875 47.261719 29.070313 C 46.867188 29.152344 46.492188 29.300781 46.125 29.480469 C 46.59375 28.976563 47.230469 28.609375 48.167969 28.492188 C 47.847656 29.285156 47 30.148438 45.855469 31.050781 C 48.457031 30.636719 50.234375 31.257813 51.101563 33.015625 C 49.546875 31.660156 47.941406 31.195313 45.753906 31.394531 C 47.863281 31.582031 49.253906 32.21875 49.988281 33.261719 L 49.554688 33.675781 L 50.296875 34.851563 C 48.96875 33.148438 47.238281 32.144531 45.25 31.816406 C 46.660156 32.570313 47.984375 33.410156 48.890625 34.441406 C 48.378906 34.082031 47.800781 33.722656 47.054688 33.367188 C 48.066406 34.355469 49.28125 35.234375 50.089844 36.339844 L 49.140625 35.636719 L 50.355469 37.6875 L 49.78125 37.675781 C 49.570313 37.003906 49.195313 36.316406 48.777344 35.753906 C 49.828125 38.542969 49.90625 41.042969 48.933594 42.023438 C 49.691406 37.007813 47.746094 32.96875 44.183594 32.136719 C 45.625 33.023438 46.285156 34.035156 46.351563 35.144531 L 46.683594 34.355469 C 46.847656 35.226563 46.863281 36.140625 46.847656 37.0625 C 48.644531 39.113281 48.339844 42.308594 46.992188 45.285156 C 47.75 44.246094 48.136719 43.246094 48.707031 42.226563 L 48.769531 44.027344 L 49.53125 42.269531 L 50.328125 42.617188 L 49.800781 40.886719 L 50.875 41.484375 L 50.460938 40.574219 L 51.433594 39.957031 L 50.257813 38.777344 C 50.792969 38.691406 51.457031 38.824219 52.007813 38.933594 L 50.585938 36.527344 C 50.894531 36.273438 51.296875 36.097656 51.824219 36.011719 C 51.527344 35.191406 50.925781 34.472656 50.132813 33.820313 C 50.460938 33.4375 50.933594 33.210938 51.617188 33.199219 C 51.078125 31.039063 49.902344 29.871094 48.148438 29.605469 C 48.84375 29.035156 49.699219 28.640625 50.667969 28.386719 L 48.832031 28.367188 C 48.796875 27.988281 48.953125 27.660156 48.914063 27.230469 C 47.605469 28.535156 45.820313 27.5625 44.492188 31.671875 Z M 43.488281 31.503906 C 43.886719 30.820313 44.179688 29.796875 44.613281 29.089844 L 44.191406 29.132813 C 44.324219 28.667969 44.320313 28.058594 44.480469 27.554688 C 43.632813 28.425781 43.351563 29.652344 43.488281 31.503906 Z M 42.632813 31.628906 C 42.707031 31.671875 42.769531 31.730469 42.820313 31.800781 C 42.84375 30.75 42.574219 29.871094 42.132813 28.941406 C 42.417969 29.152344 42.683594 29.433594 42.933594 29.78125 C 42.511719 28.675781 41.503906 27.664063 40.066406 26.914063 C 40.992188 27.089844 41.785156 27.464844 42.480469 27.988281 L 42.511719 26.75 C 43.144531 27.328125 42.839844 28.121094 43.222656 28.789063 C 43.664063 27.972656 44.15625 27.1875 44.777344 26.660156 C 44.90625 27.144531 44.980469 27.707031 45.003906 28.265625 C 45.636719 27.699219 46.328125 27.363281 47.109375 27.378906 C 45.367188 28.335938 44.363281 30.257813 43.777344 32.78125 C 43.589844 32.484375 43.691406 32.15625 43.488281 31.851563 C 43.332031 31.960938 43.222656 32.128906 42.921875 32.246094 C 42.753906 32.054688 42.636719 31.867188 42.632813 31.628906 Z M 42.117188 32.90625 C 42.453125 31.269531 41.839844 29.652344 39.839844 28.070313 C 39.871094 28.171875 39.878906 28.308594 39.851563 28.492188 C 39.628906 28.433594 39.410156 28.398438 39.191406 28.386719 C 39.292969 28.582031 39.359375 28.730469 39.386719 28.925781 C 38.996094 28.539063 38.34375 28.332031 37.519531 28.246094 C 38.015625 27.945313 38.296875 28.046875 38.820313 28.214844 L 38.796875 27.988281 C 39.046875 27.984375 39.308594 27.9375 39.558594 27.851563 C 39.328125 27.605469 39.023438 27.34375 38.824219 27.09375 C 39.636719 27.199219 40.425781 27.601563 41.015625 28.191406 C 42.429688 29.605469 43.074219 32.308594 42.117188 32.90625 Z M 36.164063 29.191406 C 36.472656 28.828125 36.996094 28.542969 37.503906 28.542969 C 38.191406 28.546875 38.976563 28.984375 39.710938 29.421875 C 40.988281 30.195313 42.113281 31.21875 41.875 32.472656 C 40.375 30.296875 38.777344 29.152344 36.164063 29.191406 Z M 33.273438 33.6875 C 33.351563 33.40625 33.484375 33.140625 33.683594 32.886719 C 33.519531 32.882813 33.359375 32.917969 33.199219 32.992188 C 33.742188 32.394531 34.273438 31.867188 35.066406 31.359375 L 34.457031 31.347656 C 34.75 30.9375 35.128906 30.597656 35.484375 30.296875 C 35.15625 30.253906 34.765625 30.230469 34.4375 30.277344 C 35.929688 28.953125 38.148438 29.070313 38.847656 30.589844 C 37.863281 30.039063 37.007813 29.738281 36.347656 29.898438 C 36.65625 29.996094 36.925781 30.109375 37.097656 30.277344 C 36.320313 30.328125 35.652344 30.636719 35.066406 31.132813 C 35.335938 31.136719 35.585938 31.175781 35.828125 31.246094 L 34.101563 32.585938 C 34.113281 32.925781 34.296875 32.726563 34.332031 32.855469 C 34.058594 33.160156 33.695313 33.4375 33.273438 33.6875 Z M 37.800781 32.394531 C 36.777344 32.792969 36.089844 32.753906 35.753906 32.558594 C 37.808594 31.066406 39.753906 30.859375 40.863281 32.261719 C 41.082031 30.808594 39.007813 30.621094 36.160156 31.335938 C 36.363281 31.394531 36.507813 31.46875 36.589844 31.5625 C 35.675781 31.894531 34.59375 32.730469 33.808594 33.902344 C 34.21875 33.566406 34.824219 33.195313 35.242188 33 C 37.253906 33.019531 37.621094 32.855469 37.800781 32.394531 Z M 39.734375 36.464844 C 39.507813 36.460938 39.453125 36.300781 39.292969 36.207031 C 39.171875 36.128906 38.964844 36.035156 38.753906 35.960938 C 38.289063 35.796875 37.789063 35.605469 38.0625 35.035156 C 38.203125 34.734375 38.984375 35.070313 38.910156 34.773438 C 38.882813 34.660156 38.636719 34.425781 38.53125 34.296875 C 39.074219 34.28125 39.398438 34.417969 39.59375 34.734375 C 39.777344 35.027344 39.996094 36.464844 39.734375 36.464844 Z M 43.164063 36.015625 C 43.453125 35.753906 43.808594 35.421875 44.179688 35.285156 C 44.433594 35.195313 44.699219 35.160156 44.945313 35.246094 C 45.242188 35.347656 45.484375 35.578125 45.34375 35.597656 C 45.230469 35.613281 44.753906 35.546875 44.730469 35.722656 C 44.710938 35.921875 44.867188 35.878906 44.945313 35.972656 C 45.128906 36.199219 45.324219 36.421875 45.128906 36.667969 C 45.074219 36.734375 44.726563 36.773438 44.585938 36.769531 C 44.292969 36.761719 44.105469 36.628906 43.730469 36.535156 C 43.484375 36.472656 43.273438 36.46875 43.113281 36.445313 C 42.875 36.40625 43.027344 36.144531 43.164063 36.015625 Z M 41.210938 37.886719 C 40.601563 37.886719 39.808594 37.757813 39.546875 38.132813 C 39.375 38.386719 39.652344 38.625 39.984375 38.796875 C 40.296875 38.960938 40.535156 39.113281 40.617188 39.359375 C 40.675781 39.542969 40.699219 40.492188 40.585938 40.5 C 40.3125 40.523438 39.859375 40.507813 39.75 40.6875 C 39.539063 41.035156 39.824219 41.117188 40.167969 41.082031 C 40.597656 41.039063 41.03125 41.03125 41.464844 41.164063 C 41.730469 41.246094 41.820313 40.902344 41.648438 40.703125 C 41.414063 40.429688 41.191406 40.722656 41.191406 40.304688 C 41.191406 39.546875 41.410156 39.269531 41.773438 39.125 C 42.027344 39.023438 42.375 39.023438 42.675781 38.78125 C 42.917969 38.589844 42.804688 38.265625 42.398438 38.082031 C 42.023438 37.917969 41.367188 37.886719 41.210938 37.886719 "/>
<path style=" stroke:none;fill-rule:nonzero;fill:rgb(92.89856%,10.998535%,14.099121%);fill-opacity:1;" d="M 35.550781 15.027344 C 35.464844 15.117188 35.359375 15.164063 35.230469 15.164063 C 35.105469 15.164063 35.003906 15.117188 34.921875 15.023438 C 34.839844 14.933594 34.796875 14.796875 34.796875 14.625 C 34.796875 14.449219 34.835938 14.320313 34.917969 14.234375 C 34.996094 14.148438 35.097656 14.101563 35.21875 14.101563 C 35.34375 14.101563 35.453125 14.152344 35.542969 14.246094 C 35.632813 14.34375 35.675781 14.476563 35.675781 14.644531 C 35.675781 14.8125 35.636719 14.9375 35.550781 15.027344 Z M 35.980469 13.722656 C 35.78125 13.617188 35.519531 13.5625 35.191406 13.5625 C 34.917969 13.5625 34.691406 13.605469 34.511719 13.691406 C 34.332031 13.78125 34.191406 13.910156 34.085938 14.082031 C 33.984375 14.25 33.933594 14.441406 33.933594 14.648438 C 33.933594 14.953125 34.035156 15.203125 34.234375 15.402344 C 34.4375 15.601563 34.683594 15.699219 34.976563 15.699219 C 35.128906 15.699219 35.261719 15.675781 35.375 15.625 C 35.492188 15.574219 35.601563 15.496094 35.710938 15.390625 C 35.679688 15.726563 35.636719 15.945313 35.578125 16.050781 C 35.496094 16.191406 35.382813 16.261719 35.234375 16.261719 C 35.152344 16.261719 35.085938 16.234375 35.027344 16.1875 C 34.96875 16.136719 34.929688 16.050781 34.90625 15.929688 L 34.003906 16.039063 C 34.054688 16.207031 34.132813 16.34375 34.234375 16.453125 C 34.332031 16.566406 34.457031 16.648438 34.609375 16.707031 C 34.757813 16.765625 34.964844 16.792969 35.222656 16.792969 C 35.664063 16.792969 36.011719 16.664063 36.257813 16.402344 C 36.507813 16.136719 36.632813 15.722656 36.632813 15.160156 C 36.632813 14.777344 36.570313 14.46875 36.453125 14.234375 C 36.335938 14 36.175781 13.828125 35.980469 13.722656 "/>
<path style=" stroke:none;fill-rule:nonzero;fill:rgb(92.89856%,10.998535%,14.099121%);fill-opacity:1;" d="M 41.785156 16.121094 C 41.703125 16.210938 41.605469 16.253906 41.484375 16.253906 C 41.355469 16.253906 41.246094 16.203125 41.15625 16.109375 C 41.066406 16.011719 41.023438 15.878906 41.023438 15.710938 C 41.023438 15.542969 41.066406 15.417969 41.152344 15.328125 C 41.238281 15.238281 41.34375 15.191406 41.46875 15.191406 C 41.59375 15.191406 41.695313 15.238281 41.78125 15.332031 C 41.863281 15.421875 41.90625 15.558594 41.90625 15.734375 C 41.90625 15.90625 41.863281 16.035156 41.785156 16.121094 Z M 42.464844 14.953125 C 42.261719 14.753906 42.015625 14.65625 41.722656 14.65625 C 41.574219 14.65625 41.441406 14.679688 41.328125 14.730469 C 41.210938 14.78125 41.097656 14.859375 40.992188 14.964844 C 41.019531 14.628906 41.0625 14.410156 41.121094 14.308594 C 41.207031 14.164063 41.320313 14.09375 41.46875 14.09375 C 41.546875 14.09375 41.617188 14.117188 41.671875 14.167969 C 41.730469 14.21875 41.769531 14.304688 41.792969 14.425781 L 42.699219 14.320313 C 42.644531 14.152344 42.570313 14.011719 42.46875 13.902344 C 42.371094 13.789063 42.246094 13.707031 42.09375 13.648438 C 41.941406 13.589844 41.734375 13.5625 41.476563 13.5625 C 41.035156 13.5625 40.691406 13.691406 40.441406 13.953125 C 40.191406 14.21875 40.070313 14.632813 40.070313 15.195313 C 40.070313 15.582031 40.128906 15.890625 40.246094 16.125 C 40.363281 16.355469 40.523438 16.527344 40.71875 16.632813 C 40.917969 16.742188 41.179688 16.792969 41.511719 16.792969 C 41.78125 16.792969 42.007813 16.75 42.191406 16.664063 C 42.371094 16.574219 42.511719 16.445313 42.613281 16.277344 C 42.714844 16.105469 42.765625 15.917969 42.765625 15.710938 C 42.765625 15.40625 42.667969 15.152344 42.464844 14.953125 "/>
<path style=" stroke:none;fill-rule:nonzero;fill:rgb(92.89856%,10.998535%,14.099121%);fill-opacity:1;" d="M 31.820313 14.054688 C 31.648438 14.191406 31.40625 14.304688 31.097656 14.398438 L 31.097656 15.113281 C 31.304688 15.050781 31.480469 14.988281 31.621094 14.917969 C 31.761719 14.851563 31.902344 14.765625 32.050781 14.65625 L 32.050781 16.742188 L 32.972656 16.742188 L 32.972656 13.5625 L 32.21875 13.5625 C 32.125 13.757813 31.988281 13.921875 31.820313 14.054688 "/>
<path style=" stroke:none;fill-rule:nonzero;fill:rgb(92.89856%,10.998535%,14.099121%);fill-opacity:1;" d="M 39.347656 15.121094 C 39.28125 15.082031 39.183594 15.046875 39.058594 15.019531 C 39.214844 14.9375 39.332031 14.839844 39.40625 14.730469 C 39.484375 14.621094 39.523438 14.5 39.523438 14.363281 C 39.523438 14.132813 39.429688 13.941406 39.238281 13.789063 C 39.046875 13.636719 38.738281 13.5625 38.308594 13.5625 C 37.9375 13.5625 37.652344 13.632813 37.449219 13.769531 C 37.242188 13.910156 37.105469 14.109375 37.035156 14.371094 L 37.894531 14.519531 C 37.917969 14.363281 37.964844 14.253906 38.03125 14.195313 C 38.097656 14.132813 38.183594 14.101563 38.292969 14.101563 C 38.398438 14.101563 38.480469 14.128906 38.539063 14.1875 C 38.597656 14.242188 38.628906 14.320313 38.628906 14.414063 C 38.628906 14.515625 38.589844 14.601563 38.507813 14.671875 C 38.429688 14.746094 38.328125 14.78125 38.210938 14.78125 C 38.183594 14.78125 38.144531 14.777344 38.09375 14.769531 L 38.046875 15.390625 C 38.171875 15.355469 38.269531 15.339844 38.339844 15.339844 C 38.472656 15.339844 38.582031 15.378906 38.65625 15.460938 C 38.734375 15.539063 38.777344 15.652344 38.777344 15.796875 C 38.777344 15.9375 38.734375 16.050781 38.652344 16.136719 C 38.574219 16.222656 38.46875 16.265625 38.347656 16.265625 C 38.234375 16.265625 38.136719 16.230469 38.0625 16.164063 C 37.988281 16.097656 37.929688 15.976563 37.894531 15.800781 L 36.984375 15.914063 C 37.046875 16.109375 37.132813 16.273438 37.242188 16.402344 C 37.351563 16.527344 37.492188 16.628906 37.667969 16.695313 C 37.839844 16.761719 38.074219 16.792969 38.371094 16.792969 C 38.675781 16.792969 38.921875 16.75 39.109375 16.660156 C 39.296875 16.570313 39.441406 16.441406 39.542969 16.273438 C 39.640625 16.105469 39.691406 15.929688 39.691406 15.75 C 39.691406 15.605469 39.660156 15.480469 39.601563 15.375 C 39.539063 15.269531 39.457031 15.1875 39.347656 15.121094 "/>
<path style=" stroke:none;fill-rule:nonzero;fill:rgb(92.89856%,10.998535%,14.099121%);fill-opacity:1;" d="M 20.078125 28.488281 C 19.898438 28.390625 19.621094 28.292969 19.25 28.195313 C 18.875 28.101563 18.640625 28.011719 18.542969 27.925781 C 18.46875 27.855469 18.429688 27.773438 18.429688 27.675781 C 18.429688 27.570313 18.46875 27.488281 18.550781 27.421875 C 18.675781 27.324219 18.851563 27.277344 19.074219 27.277344 C 19.289063 27.277344 19.453125 27.324219 19.558594 27.414063 C 19.667969 27.503906 19.738281 27.65625 19.773438 27.867188 L 20.539063 27.832031 C 20.527344 27.457031 20.398438 27.15625 20.160156 26.929688 C 19.917969 26.707031 19.558594 26.59375 19.082031 26.59375 C 18.789063 26.59375 18.542969 26.644531 18.335938 26.734375 C 18.128906 26.832031 17.972656 26.96875 17.863281 27.148438 C 17.753906 27.332031 17.699219 27.523438 17.699219 27.730469 C 17.699219 28.054688 17.8125 28.328125 18.046875 28.554688 C 18.210938 28.710938 18.5 28.847656 18.910156 28.957031 C 19.230469 29.042969 19.4375 29.101563 19.527344 29.136719 C 19.65625 29.183594 19.75 29.242188 19.800781 29.3125 C 19.855469 29.378906 19.882813 29.460938 19.882813 29.558594 C 19.882813 29.707031 19.816406 29.839844 19.691406 29.949219 C 19.566406 30.0625 19.382813 30.121094 19.136719 30.121094 C 18.902344 30.121094 18.714844 30.054688 18.578125 29.929688 C 18.441406 29.804688 18.351563 29.605469 18.304688 29.335938 L 17.558594 29.414063 C 17.609375 29.871094 17.765625 30.21875 18.019531 30.457031 C 18.277344 30.695313 18.648438 30.816406 19.125 30.816406 C 19.457031 30.816406 19.730469 30.765625 19.953125 30.664063 C 20.175781 30.566406 20.34375 30.414063 20.464844 30.210938 C 20.585938 30.007813 20.648438 29.789063 20.648438 29.554688 C 20.648438 29.296875 20.597656 29.082031 20.496094 28.90625 C 20.394531 28.730469 20.253906 28.59375 20.078125 28.488281 "/>
<path style=" stroke:none;fill-rule:nonzero;fill:rgb(92.89856%,10.998535%,14.099121%);fill-opacity:1;" d="M 55.578125 29.140625 C 55.515625 29.4375 55.414063 29.65625 55.269531 29.796875 C 55.128906 29.9375 54.957031 30.003906 54.757813 30.003906 C 54.488281 30.003906 54.269531 29.898438 54.101563 29.675781 C 53.933594 29.457031 53.847656 29.089844 53.847656 28.574219 C 53.847656 28.089844 53.933594 27.738281 54.105469 27.523438 C 54.277344 27.304688 54.5 27.195313 54.773438 27.195313 C 54.972656 27.195313 55.140625 27.257813 55.277344 27.378906 C 55.417969 27.5 55.511719 27.667969 55.554688 27.878906 L 56.292969 27.683594 C 56.210938 27.359375 56.082031 27.109375 55.914063 26.933594 C 55.632813 26.640625 55.261719 26.492188 54.808594 26.492188 C 54.292969 26.492188 53.875 26.679688 53.554688 27.054688 C 53.238281 27.429688 53.078125 27.957031 53.078125 28.636719 C 53.078125 29.277344 53.234375 29.785156 53.550781 30.15625 C 53.867188 30.523438 54.273438 30.710938 54.765625 30.710938 C 55.164063 30.710938 55.492188 30.601563 55.75 30.386719 C 56.007813 30.167969 56.191406 29.839844 56.304688 29.394531 L 55.578125 29.140625 "/>
<path style=" stroke:none;fill-rule:nonzero;fill:rgb(92.89856%,10.998535%,14.099121%);fill-opacity:1;" d="M 37.890625 23.875 C 37.714844 23.777344 37.441406 23.679688 37.074219 23.582031 C 36.707031 23.488281 36.476563 23.398438 36.378906 23.308594 C 36.304688 23.242188 36.269531 23.160156 36.269531 23.0625 C 36.269531 22.957031 36.308594 22.871094 36.386719 22.808594 C 36.511719 22.710938 36.683594 22.664063 36.902344 22.664063 C 37.117188 22.664063 37.277344 22.707031 37.382813 22.800781 C 37.488281 22.890625 37.558594 23.042969 37.589844 23.253906 L 38.347656 23.214844 C 38.335938 22.839844 38.210938 22.542969 37.972656 22.316406 C 37.734375 22.09375 37.382813 21.980469 36.910156 21.980469 C 36.621094 21.980469 36.378906 22.027344 36.175781 22.121094 C 35.972656 22.21875 35.816406 22.355469 35.707031 22.535156 C 35.597656 22.71875 35.542969 22.910156 35.542969 23.117188 C 35.542969 23.441406 35.660156 23.714844 35.890625 23.941406 C 36.054688 24.097656 36.335938 24.234375 36.742188 24.34375 C 37.058594 24.429688 37.257813 24.488281 37.347656 24.523438 C 37.476563 24.570313 37.566406 24.628906 37.617188 24.699219 C 37.671875 24.765625 37.699219 24.847656 37.699219 24.945313 C 37.699219 25.09375 37.636719 25.226563 37.511719 25.335938 C 37.390625 25.449219 37.207031 25.507813 36.960938 25.507813 C 36.730469 25.507813 36.550781 25.441406 36.414063 25.316406 C 36.277344 25.191406 36.1875 24.992188 36.144531 24.722656 L 35.410156 24.800781 C 35.457031 25.257813 35.609375 25.605469 35.863281 25.84375 C 36.117188 26.082031 36.480469 26.203125 36.953125 26.203125 C 37.28125 26.203125 37.550781 26.152344 37.769531 26.050781 C 37.988281 25.953125 38.15625 25.800781 38.273438 25.597656 C 38.394531 25.394531 38.453125 25.175781 38.453125 24.941406 C 38.453125 24.683594 38.402344 24.46875 38.304688 24.292969 C 38.203125 24.117188 38.066406 23.976563 37.890625 23.875 "/>
<path style=" stroke:none;fill-rule:nonzero;fill:rgb(100%,100%,100%);fill-opacity:1;" d="M 36.671875 63.402344 C 36.671875 63.59375 36.632813 63.742188 36.554688 63.847656 C 36.476563 63.953125 36.367188 64.003906 36.226563 64.003906 C 36.089844 64.003906 35.980469 63.953125 35.902344 63.84375 C 35.824219 63.738281 35.78125 63.59375 35.78125 63.402344 L 35.78125 61.289063 L 34.980469 61.289063 L 34.980469 63.355469 C 34.980469 63.523438 35.003906 63.71875 35.054688 63.9375 C 35.085938 64.078125 35.144531 64.210938 35.226563 64.339844 C 35.308594 64.46875 35.402344 64.566406 35.503906 64.636719 C 35.601563 64.707031 35.726563 64.753906 35.878906 64.777344 C 36.027344 64.800781 36.164063 64.8125 36.292969 64.8125 C 36.511719 64.8125 36.699219 64.773438 36.855469 64.699219 C 36.96875 64.644531 37.074219 64.546875 37.175781 64.410156 C 37.277344 64.273438 37.355469 64.113281 37.402344 63.933594 C 37.449219 63.75 37.472656 63.558594 37.472656 63.355469 L 37.472656 61.289063 L 36.671875 61.289063 L 36.671875 63.402344 "/>
<path style=" stroke:none;fill-rule:nonzero;fill:rgb(100%,100%,100%);fill-opacity:1;" d="M 31.34375 62.625 C 31.222656 62.25 31.101563 61.875 30.976563 61.492188 C 30.832031 61.507813 30.6875 61.519531 30.546875 61.535156 C 30.40625 61.546875 30.265625 61.5625 30.128906 61.574219 C 30.253906 61.953125 30.378906 62.332031 30.503906 62.703125 C 30.625 63.074219 30.746094 63.441406 30.867188 63.804688 C 30.933594 64.003906 30.941406 64.15625 30.898438 64.261719 C 30.851563 64.371094 30.761719 64.425781 30.621094 64.425781 C 30.28125 64.425781 30.105469 64.109375 30.007813 63.824219 C 29.886719 63.472656 29.734375 63.113281 29.613281 62.753906 C 29.492188 62.394531 29.367188 62.027344 29.242188 61.660156 C 29.113281 61.675781 28.984375 61.6875 28.859375 61.699219 C 28.734375 61.710938 28.609375 61.722656 28.488281 61.734375 C 28.609375 62.085938 28.726563 62.429688 28.847656 62.773438 C 28.96875 63.117188 29.085938 63.457031 29.203125 63.792969 C 29.257813 63.957031 29.347656 64.148438 29.46875 64.363281 C 29.542969 64.492188 29.640625 64.621094 29.761719 64.75 C 29.882813 64.875 30.003906 64.972656 30.121094 65.042969 C 30.242188 65.113281 30.378906 65.160156 30.53125 65.1875 C 30.6875 65.210938 30.828125 65.226563 30.957031 65.230469 C 31.726563 65.25 31.9375 64.464844 31.699219 63.734375 C 31.582031 63.367188 31.464844 63 31.34375 62.625 "/>
<path style=" stroke:none;fill-rule:nonzero;fill:rgb(100%,100%,100%);fill-opacity:1;" d="M 33.617188 61.339844 C 33.578125 61.816406 33.539063 62.277344 33.503906 62.722656 C 33.46875 63.152344 33.4375 63.570313 33.40625 63.976563 C 33.226563 63.574219 33.042969 63.164063 32.859375 62.742188 C 32.667969 62.3125 32.472656 61.875 32.273438 61.421875 C 32.117188 61.429688 31.960938 61.441406 31.804688 61.449219 C 31.648438 61.457031 31.496094 61.46875 31.34375 61.476563 C 31.660156 62.089844 31.96875 62.679688 32.265625 63.253906 C 32.554688 63.808594 32.835938 64.347656 33.109375 64.871094 C 33.257813 64.871094 33.40625 64.871094 33.558594 64.871094 C 33.707031 64.875 33.859375 64.875 34.015625 64.875 C 34.101563 64.34375 34.191406 63.785156 34.285156 63.203125 C 34.386719 62.59375 34.492188 61.953125 34.601563 61.28125 C 34.433594 61.292969 34.269531 61.300781 34.105469 61.3125 C 33.941406 61.320313 33.777344 61.332031 33.617188 61.339844 "/>
<path style=" stroke:none;fill-rule:nonzero;fill:rgb(100%,100%,100%);fill-opacity:1;" d="M 24.816406 62.523438 C 24.707031 62.546875 24.597656 62.574219 24.488281 62.597656 C 24.378906 62.625 24.273438 62.648438 24.164063 62.671875 C 24.433594 63.027344 24.695313 63.367188 24.949219 63.691406 C 25.191406 64.007813 25.425781 64.3125 25.652344 64.605469 C 25.296875 64.339844 24.929688 64.0625 24.550781 63.777344 C 24.160156 63.480469 23.757813 63.175781 23.339844 62.863281 C 23.234375 62.886719 23.132813 62.910156 23.03125 62.933594 C 22.925781 62.957031 22.824219 62.980469 22.722656 63.003906 C 23.242188 63.609375 23.726563 64.171875 24.183594 64.703125 C 24.613281 65.203125 25.019531 65.671875 25.402344 66.117188 C 25.492188 66.101563 25.582031 66.085938 25.667969 66.070313 C 25.761719 66.054688 25.851563 66.039063 25.941406 66.023438 C 25.738281 65.78125 25.53125 65.527344 25.320313 65.269531 C 25.097656 65 24.871094 64.71875 24.632813 64.433594 C 24.996094 64.695313 25.34375 64.953125 25.683594 65.199219 C 26.015625 65.441406 26.335938 65.675781 26.648438 65.902344 C 26.742188 65.886719 26.835938 65.871094 26.929688 65.855469 C 27.023438 65.835938 27.117188 65.820313 27.210938 65.804688 C 26.871094 65.339844 26.511719 64.84375 26.128906 64.320313 C 25.71875 63.757813 25.28125 63.160156 24.816406 62.523438 "/>
<path style=" stroke:none;fill-rule:nonzero;fill:rgb(100%,100%,100%);fill-opacity:1;" d="M 28.363281 63.273438 C 28.222656 63.3125 28.082031 63.355469 27.933594 63.398438 C 27.789063 63.441406 27.640625 63.484375 27.492188 63.527344 C 27.625 63.753906 27.761719 63.976563 27.898438 64.207031 C 28.027344 64.164063 28.152344 64.121094 28.28125 64.082031 C 28.339844 64.183594 28.402344 64.285156 28.464844 64.386719 C 28.4375 64.488281 28.40625 64.570313 28.367188 64.621094 C 28.332031 64.675781 28.28125 64.710938 28.214844 64.734375 C 28.078125 64.785156 27.925781 64.742188 27.753906 64.613281 C 27.582031 64.484375 27.386719 64.238281 27.175781 63.878906 C 26.972656 63.542969 26.871094 63.289063 26.855469 63.113281 C 26.84375 62.941406 26.90625 62.839844 27.035156 62.804688 C 27.125 62.78125 27.214844 62.796875 27.304688 62.84375 C 27.398438 62.894531 27.492188 62.972656 27.589844 63.085938 C 27.664063 63.035156 27.738281 62.980469 27.8125 62.929688 C 27.886719 62.878906 27.957031 62.824219 28.03125 62.773438 C 27.875 62.585938 27.726563 62.433594 27.585938 62.324219 C 27.441406 62.210938 27.300781 62.136719 27.160156 62.097656 C 27.019531 62.058594 26.847656 62.0625 26.636719 62.109375 C 26.523438 62.136719 26.429688 62.171875 26.355469 62.21875 C 26.28125 62.261719 26.222656 62.320313 26.1875 62.386719 C 26.089844 62.5625 26.074219 62.792969 26.136719 63.082031 C 26.167969 63.230469 26.21875 63.386719 26.289063 63.550781 C 26.359375 63.71875 26.449219 63.894531 26.558594 64.078125 C 26.660156 64.257813 26.769531 64.421875 26.882813 64.570313 C 26.996094 64.722656 27.117188 64.859375 27.238281 64.984375 C 27.484375 65.234375 27.722656 65.402344 27.953125 65.484375 C 28.066406 65.527344 28.179688 65.550781 28.292969 65.550781 C 28.40625 65.546875 28.519531 65.523438 28.628906 65.480469 C 28.804688 65.414063 28.933594 65.316406 29.015625 65.191406 C 29.097656 65.070313 29.152344 64.878906 29.191406 64.617188 C 29.050781 64.390625 28.910156 64.164063 28.773438 63.941406 C 28.636719 63.71875 28.5 63.496094 28.363281 63.273438 "/>
<path style=" stroke:none;fill-rule:nonzero;fill:rgb(100%,100%,100%);fill-opacity:1;" d="M 42.453125 61.558594 C 42.265625 61.542969 42.082031 61.53125 41.898438 61.515625 C 41.742188 61.878906 41.585938 62.238281 41.433594 62.59375 C 41.28125 62.953125 41.128906 63.304688 40.976563 63.65625 C 40.992188 63.289063 41.003906 62.925781 41.015625 62.558594 C 41.03125 62.191406 41.042969 61.824219 41.054688 61.453125 C 40.875 61.441406 40.699219 61.425781 40.519531 61.414063 C 40.34375 61.402344 40.167969 61.386719 39.992188 61.375 C 39.863281 61.960938 39.734375 62.546875 39.605469 63.125 C 39.476563 63.703125 39.351563 64.273438 39.226563 64.84375 C 39.4375 64.871094 39.648438 64.898438 39.863281 64.925781 C 39.960938 64.488281 40.0625 64.046875 40.160156 63.605469 C 40.261719 63.164063 40.359375 62.714844 40.460938 62.265625 C 40.445313 62.722656 40.429688 63.179688 40.414063 63.632813 C 40.394531 64.085938 40.378906 64.539063 40.363281 64.992188 C 40.5625 65.015625 40.761719 65.042969 40.960938 65.066406 C 41.148438 64.632813 41.339844 64.195313 41.53125 63.753906 C 41.722656 63.308594 41.917969 62.863281 42.113281 62.410156 C 42.007813 62.871094 41.898438 63.328125 41.792969 63.78125 C 41.6875 64.234375 41.582031 64.683594 41.476563 65.132813 C 41.703125 65.164063 41.929688 65.191406 42.160156 65.21875 C 42.300781 64.625 42.441406 64.027344 42.582031 63.425781 C 42.726563 62.824219 42.871094 62.214844 43.015625 61.601563 C 42.824219 61.585938 42.636719 61.574219 42.453125 61.558594 "/>
<path style=" stroke:none;fill-rule:nonzero;fill:rgb(100%,100%,100%);fill-opacity:1;" d="M 47.101563 65.238281 C 47.230469 65.105469 47.382813 64.949219 47.546875 64.761719 C 47.816406 64.460938 48.09375 64.148438 48.382813 63.824219 C 48.679688 63.492188 48.984375 63.148438 49.304688 62.792969 C 49.179688 62.734375 49.054688 62.679688 48.929688 62.625 C 48.804688 62.566406 48.679688 62.511719 48.558594 62.457031 C 48.21875 62.863281 47.890625 63.253906 47.574219 63.628906 C 47.269531 63.988281 46.972656 64.339844 46.691406 64.675781 C 46.527344 64.871094 46.394531 64.996094 46.296875 65.058594 C 46.199219 65.125 46.113281 65.136719 46.046875 65.101563 C 46.003906 65.078125 45.980469 65.050781 45.980469 65.011719 C 45.976563 64.953125 45.996094 64.886719 46.035156 64.8125 C 46.078125 64.738281 46.152344 64.628906 46.269531 64.488281 C 46.152344 64.460938 46.03125 64.433594 45.917969 64.40625 C 45.804688 64.375 45.6875 64.347656 45.574219 64.320313 C 45.398438 64.570313 45.277344 64.789063 45.210938 64.976563 C 45.148438 65.164063 45.136719 65.324219 45.175781 65.457031 C 45.199219 65.523438 45.234375 65.585938 45.292969 65.644531 C 45.351563 65.703125 45.425781 65.757813 45.523438 65.808594 C 45.613281 65.855469 45.707031 65.882813 45.808594 65.894531 C 45.90625 65.90625 46.011719 65.894531 46.121094 65.867188 C 46.347656 65.8125 46.554688 65.703125 46.753906 65.546875 C 46.855469 65.46875 46.96875 65.363281 47.101563 65.238281 "/>
<path style=" stroke:none;fill-rule:nonzero;fill:rgb(100%,100%,100%);fill-opacity:1;" d="M 49.441406 64.640625 C 49.3125 64.839844 49.1875 65.039063 49.0625 65.234375 C 48.898438 65.183594 48.734375 65.132813 48.574219 65.082031 C 48.777344 64.914063 48.984375 64.738281 49.191406 64.5625 C 49.402344 64.386719 49.617188 64.203125 49.835938 64.019531 C 49.703125 64.230469 49.570313 64.4375 49.441406 64.640625 Z M 50.632813 63.144531 C 50.5 63.105469 50.363281 63.0625 50.230469 63.023438 C 49.582031 63.550781 48.957031 64.0625 48.351563 64.550781 C 47.769531 65.023438 47.207031 65.480469 46.664063 65.921875 C 46.777344 65.957031 46.890625 65.988281 47 66.023438 C 47.113281 66.058594 47.226563 66.09375 47.335938 66.125 C 47.507813 65.980469 47.679688 65.832031 47.855469 65.683594 C 47.984375 65.722656 48.109375 65.761719 48.238281 65.800781 C 48.363281 65.839844 48.492188 65.878906 48.621094 65.917969 C 48.511719 66.085938 48.402344 66.253906 48.292969 66.417969 C 48.410156 66.453125 48.523438 66.488281 48.640625 66.523438 C 48.753906 66.558594 48.867188 66.59375 48.984375 66.628906 C 49.296875 66.117188 49.617188 65.589844 49.953125 65.039063 C 50.296875 64.472656 50.65625 63.878906 51.03125 63.265625 C 50.898438 63.226563 50.765625 63.1875 50.632813 63.144531 "/>
<path style=" stroke:none;fill-rule:nonzero;fill:rgb(100%,100%,100%);fill-opacity:1;" d="M 44.761719 63.863281 C 44.585938 64.191406 44.0625 64.789063 43.746094 64.699219 C 43.265625 64.558594 43.636719 63.882813 43.757813 63.640625 C 43.945313 63.269531 44.128906 63.011719 44.304688 62.871094 C 44.480469 62.730469 44.644531 62.683594 44.792969 62.730469 C 44.949219 62.777344 45.027344 62.894531 45.03125 63.082031 C 45.03125 63.269531 44.941406 63.53125 44.761719 63.863281 Z M 45.953125 62.597656 C 45.933594 62.191406 45.660156 61.9375 45.273438 61.808594 C 45.078125 61.742188 44.875 61.730469 44.667969 61.769531 C 44.464844 61.8125 44.257813 61.90625 44.054688 62.054688 C 43.851563 62.203125 43.660156 62.394531 43.480469 62.625 C 43.308594 62.855469 43.148438 63.125 43.003906 63.429688 C 42.902344 63.644531 42.824219 63.84375 42.773438 64.023438 C 42.71875 64.199219 42.6875 64.363281 42.679688 64.511719 C 42.664063 64.800781 42.714844 65.023438 42.828125 65.179688 C 42.886719 65.257813 42.960938 65.324219 43.054688 65.375 C 43.144531 65.425781 43.253906 65.46875 43.382813 65.496094 C 43.507813 65.523438 43.628906 65.535156 43.746094 65.523438 C 43.867188 65.515625 43.984375 65.488281 44.101563 65.441406 C 44.335938 65.351563 44.558594 65.199219 44.78125 64.980469 C 44.890625 64.875 45 64.742188 45.109375 64.59375 C 45.222656 64.441406 45.335938 64.265625 45.445313 64.070313 C 45.6875 63.644531 45.976563 63.097656 45.953125 62.597656 "/>
</g>
</svg>
